#define actline_width 20
#define actline_height 10
static char actline_bits[] = {
   0x00, 0x00, 0x00, 0x00, 0x00, 0x06, 0x00, 0x80, 0x01, 0x00, 0x70, 0x00,
   0x00, 0x0c, 0x00, 0x00, 0x03, 0x00, 0xe0, 0x00, 0x00, 0x18, 0x00, 0x00,
   0x06, 0x00, 0x00, 0x00, 0x00, 0x00};
